<?xml version="1.0" encoding="UTF-8" standalone="no"?>
<svg
   width="200"
   height="200"
   viewBox="0 0 200 200"
   version="1.1"
   id="svg15"
   sodipodi:docname="logo.svg"
   inkscape:version="1.3.2 (091e20e, 2023-11-25, custom)"
   xmlns:inkscape="http://www.inkscape.org/namespaces/inkscape"
   xmlns:sodipodi="http://sodipodi.sourceforge.net/DTD/sodipodi-0.dtd"
   xmlns="http://www.w3.org/2000/svg"
   xmlns:svg="http://www.w3.org/2000/svg">
  <defs
     id="defs15" />
  <sodipodi:namedview
     id="namedview15"
     pagecolor="#ffffff"
     bordercolor="#000000"
     borderopacity="0.25"
     inkscape:showpageshadow="2"
     inkscape:pageopacity="0.0"
     inkscape:pagecheckerboard="0"
     inkscape:deskcolor="#d1d1d1"
     inkscape:zoom="2.9026733"
     inkscape:cx="73.897396"
     inkscape:cy="93.189956"
     inkscape:window-width="1920"
     inkscape:window-height="1017"
     inkscape:window-x="-8"
     inkscape:window-y="-8"
     inkscape:window-maximized="1"
     inkscape:current-layer="svg15" />
  <path
     fill="#ffffff"
     d="m 98.948977,50.187621 h 84.000003 v 34 H 98.948977 Z"
     id="path1"
     style="fill-rule:evenodd" />
  <path
     d="m 22.948971,161.18762 c -7.398,0 -13.8429997,-4.027 -17.3029998,-10 a 19.886,19.886 0 0 0 -2.697,10 c 0,11.046 8.9539998,20 19.9999998,20 h 20 v -20 z"
     fill="#3ecc5f"
     id="path2"
     style="fill-rule:evenodd;fill:#000080" />
  <path
     d="m 112.92898,55.563621 70.02,-4.376 v -10 c 0,-11.046 -8.954,-20 -20,-20 H 72.948971 l -2.5,-4.33 c -1.112,-1.925 -3.889,-1.925 -5,0 l -2.5,4.33 -2.5,-4.33 c -1.111,-1.925 -3.889,-1.925 -5,0 l -2.5,4.33 -2.5,-4.33 c -1.111,-1.925 -3.889,-1.925 -5,0 l -2.5,4.33 c -0.022,0 -0.042,0.003 -0.065,0.003 l -4.142,-4.141 c -1.57,-1.571 -4.252,-0.853 -4.828,1.294 l -1.369,5.104 -5.192,-1.392 c -2.148,-0.575 -4.111,1.389 -3.535,3.536 l 1.39,5.193 -5.102,1.367 c -2.148,0.576 -2.867,3.259 -1.296,4.83 l 4.142,4.142 c 0,0.021 -0.003,0.042 -0.003,0.064 l -4.33,2.5 c -1.925,1.111 -1.925,3.889 0,5 l 4.33,2.5 -4.33,2.5 c -1.925,1.111 -1.925,3.889 0,5 l 4.33,2.5 -4.33,2.5 c -1.925,1.111 -1.925,3.889 0,5 l 4.33,2.5 -4.33,2.5 c -1.925,1.111 -1.925,3.889 0,5 l 4.33,2.5 -4.33,2.5 c -1.925,1.111 -1.925,3.889 0,5 l 4.33,2.5 -4.33,2.5 c -1.925,1.111 -1.925,3.889 0,5 l 4.33,2.499999 -4.33,2.5 c -1.925,1.111 -1.925,3.889 0,5 l 4.33,2.5 -4.33,2.5 c -1.925,1.111 -1.925,3.889 0,5 l 4.33,2.5 -4.33,2.5 c -1.925,1.111 -1.925,3.889 0,5 l 4.33,2.5 -4.33,2.5 c -1.925,1.111 -1.925,3.889 0,5 l 4.33,2.5 -4.33,2.5 c -1.925,1.111 -1.925,3.889 0,5 l 4.33,2.5 -4.33,2.5 c -1.925,1.111 -1.925,3.889 0,5 l 4.33,2.5 c 0,11.046 8.954,20 20,20 H 162.94898 c 11.046,0 20,-8.954 20,-20 V 81.187621 l -70.02,-4.376 a 10.645,10.645 0 0 1 -9.98,-10.624 c 0,-5.621 4.37,-10.273 9.98,-10.624"
     fill="#3ecc5f"
     id="path3"
     style="fill-rule:evenodd;fill:#000080" />
  <path
     fill="#3ecc5f"
     d="m 142.94898,181.18762 h 30 v -40 h -30 z"
     id="path4"
     style="fill-rule:evenodd" />
  <path
     d="m 192.94898,156.18762 c -0.219,0 -0.428,0.037 -0.639,0.064 -0.038,-0.15 -0.074,-0.301 -0.116,-0.451 a 5,5 0 0 0 -1.925,-9.613 4.96,4.96 0 0 0 -3.016,1.036 26.531,26.531 0 0 0 -0.335,-0.336 4.955,4.955 0 0 0 1.011,-2.987 5,5 0 0 0 -9.599,-1.959 c -0.148,-0.042 -0.297,-0.077 -0.445,-0.115 0.027,-0.211 0.064,-0.42 0.064,-0.639 a 5,5 0 0 0 -5,-5 5,5 0 0 0 -5,5 c 0,0.219 0.037,0.428 0.064,0.639 -0.148,0.038 -0.297,0.073 -0.445,0.115 a 4.998,4.998 0 0 0 -9.599,1.959 c 0,1.125 0.384,2.151 1.011,2.987 -3.717,3.632 -6.031,8.693 -6.031,14.3 0,11.046 8.954,20 20,20 9.339,0 17.16,-6.41 19.361,-15.064 0.211,0.027 0.42,0.064 0.639,0.064 a 5,5 0 0 0 5,-5 5,5 0 0 0 -5,-5"
     fill="#44d860"
     id="path5"
     style="fill-rule:evenodd;fill:#000080" />
  <path
     fill="#3ecc5f"
     d="m 152.94898,121.18762 h 30 v -20 h -30 z"
     id="path6"
     style="fill-rule:evenodd" />
  <path
     d="m 192.94898,113.68762 a 2.5,2.5 0 1 0 0,-5 c -0.109,0 -0.214,0.019 -0.319,0.032 -0.02,-0.075 -0.037,-0.15 -0.058,-0.225 a 2.501,2.501 0 0 0 -0.963,-4.807 c -0.569,0 -1.088,0.197 -1.508,0.518 a 6.653,6.653 0 0 0 -0.168,-0.168 c 0.314,-0.417 0.506,-0.931 0.506,-1.494 a 2.5,2.5 0 0 0 -4.8,-0.979 9.987,9.987 0 0 0 -2.69,-0.377 c -5.522,0 -10,4.478 -10,10 0,5.522 4.478,10 10,10 0.934,0 1.833,-0.138 2.69,-0.377 a 2.5,2.5 0 0 0 4.8,-0.979 c 0,-0.563 -0.192,-1.077 -0.506,-1.494 0.057,-0.055 0.113,-0.111 0.168,-0.168 0.42,0.321 0.939,0.518 1.508,0.518 a 2.5,2.5 0 0 0 0.963,-4.807 c 0.021,-0.074 0.038,-0.15 0.058,-0.225 0.105,0.013 0.21,0.032 0.319,0.032"
     fill="#44d860"
     id="path7"
     style="fill-rule:evenodd;fill:#000080" />
  <path
     d="m 62.948971,53.687621 a 2.5,2.5 0 0 1 -2.5,-2.5 c 0,-4.136 -3.364,-7.5 -7.5,-7.5 -4.136,0 -7.5,3.364 -7.5,7.5 a 2.5,2.5 0 1 1 -5,0 c 0,-6.893 5.607,-12.5 12.5,-12.5 6.893,0 12.5,5.607 12.5,12.5 a 2.5,2.5 0 0 1 -2.5,2.5"
     fill="#000000"
     id="path8"
     style="fill-rule:evenodd" />
  <path
     d="m 102.94898,181.18762 h 60 c 11.046,0 20,-8.954 20,-20 V 91.187621 h -60 c -11.046,0 -20,8.953999 -20,19.999999 z"
     fill="#ffff50"
     id="path9"
     style="fill-rule:evenodd;fill:#008080" />
  <path
     d="m 167.96898,122.18762 h -50.04 a 1,1 0 1 1 0,-2 h 50.04 a 1,1 0 1 1 0,2 m 0,20 h -50.04 a 1,1 0 1 1 0,-2 h 50.04 a 1,1 0 1 1 0,2 m 0,20 h -50.04 a 1,1 0 1 1 0,-2 h 50.04 a 1,1 0 1 1 0,2 m 0,-49.814 h -50.04 a 1,1 0 1 1 0,-2 h 50.04 a 1,1 0 1 1 0,2 m 0,19.814 h -50.04 a 1,1 0 1 1 0,-2 h 50.04 a 1,1 0 1 1 0,2 m 0,20 h -50.04 a 1,1 0 1 1 0,-2 h 50.04 a 1,1 0 1 1 0,2 m 14.98,-92.388999 c -0.012,0 -0.022,-0.006 -0.034,-0.005 -3.09,0.105 -4.552,3.196 -5.842,5.923 -1.346,2.85 -2.387,4.703 -4.093,4.647 -1.889,-0.068 -2.969,-2.202 -4.113,-4.46 -1.314,-2.594 -2.814,-5.536 -5.963,-5.426 -3.046,0.104 -4.513,2.794 -5.807,5.167 -1.377,2.528 -2.314,4.065 -4.121,3.994 -1.927,-0.07 -2.951,-1.805 -4.136,-3.813 -1.321,-2.236 -2.848,-4.75 -5.936,-4.664 -2.994,0.103 -4.465,2.385 -5.763,4.4 -1.373,2.13 -2.335,3.428 -4.165,3.351 -1.973,-0.07 -2.992,-1.51 -4.171,-3.177 -1.324,-1.873 -2.816,-3.993 -5.895,-3.89 -2.928,0.1 -4.399,1.97 -5.696,3.618 -1.232,1.564 -2.194,2.802 -4.229,2.724 a 1.0006478,1.0006478 0 0 0 -0.072,2 c 3.017,0.101 4.545,-1.8 5.872,-3.487 1.177,-1.496 2.193,-2.787 4.193,-2.855 1.926,-0.082 2.829,1.115 4.195,3.045 1.297,1.834 2.769,3.914 5.731,4.021 3.103,0.104 4.596,-2.215 5.918,-4.267 1.182,-1.834 2.202,-3.417 4.15,-3.484 1.793,-0.067 2.769,1.35 4.145,3.681 1.297,2.197 2.766,4.686 5.787,4.796 3.125,0.108 4.634,-2.62 5.949,-5.035 1.139,-2.088 2.214,-4.06 4.119,-4.126 1.793,-0.042 2.728,1.595 4.111,4.33 1.292,2.553 2.757,5.445 5.825,5.556 l 0.169,0.003 c 3.064,0 4.518,-3.075 5.805,-5.794 1.139,-2.41 2.217,-4.68 4.067,-4.773 z"
     fill="#000000"
     id="path10"
     style="fill-rule:evenodd" />
  <path
     fill="#3ecc5f"
     d="m 82.948971,181.18762 h 40.000009 v -40 H 82.948971 Z"
     id="path11"
     style="fill-rule:evenodd;fill:#000080" />
  <path
     d="m 142.94898,156.18762 c -0.219,0 -0.428,0.037 -0.639,0.064 -0.038,-0.15 -0.074,-0.301 -0.116,-0.451 a 5,5 0 0 0 -1.925,-9.613 4.96,4.96 0 0 0 -3.016,1.036 26.531,26.531 0 0 0 -0.335,-0.336 4.955,4.955 0 0 0 1.011,-2.987 5,5 0 0 0 -9.599,-1.959 c -0.148,-0.042 -0.297,-0.077 -0.445,-0.115 0.027,-0.211 0.064,-0.42 0.064,-0.639 a 5,5 0 0 0 -5,-5 5,5 0 0 0 -5,5 c 0,0.219 0.037,0.428 0.064,0.639 -0.148,0.038 -0.297,0.073 -0.445,0.115 a 4.998,4.998 0 0 0 -9.599,1.959 c 0,1.125 0.384,2.151 1.011,2.987 -3.717,3.632 -6.031,8.693 -6.031,14.3 0,11.046 8.954,20 20,20 9.339,0 17.16,-6.41 19.361,-15.064 0.211,0.027 0.42,0.064 0.639,0.064 a 5,5 0 0 0 5,-5 5,5 0 0 0 -5,-5"
     fill="#44d860"
     id="path12"
     style="fill-rule:evenodd;fill:#000080" />
  <path
     fill="#3ecc5f"
     d="m 82.948971,121.18762 h 40.000009 v -20 H 82.948971 Z"
     id="path13"
     style="fill-rule:evenodd;fill:#000080" />
  <path
     d="m 132.94898,113.68762 a 2.5,2.5 0 1 0 0,-5 c -0.109,0 -0.214,0.019 -0.319,0.032 -0.02,-0.075 -0.037,-0.15 -0.058,-0.225 a 2.501,2.501 0 0 0 -0.963,-4.807 c -0.569,0 -1.088,0.197 -1.508,0.518 a 6.653,6.653 0 0 0 -0.168,-0.168 c 0.314,-0.417 0.506,-0.931 0.506,-1.494 a 2.5,2.5 0 0 0 -4.8,-0.979 9.987,9.987 0 0 0 -2.69,-0.377 c -5.522,0 -10,4.478 -10,10 0,5.522 4.478,10 10,10 0.934,0 1.833,-0.138 2.69,-0.377 a 2.5,2.5 0 0 0 4.8,-0.979 c 0,-0.563 -0.192,-1.077 -0.506,-1.494 0.057,-0.055 0.113,-0.111 0.168,-0.168 0.42,0.321 0.939,0.518 1.508,0.518 a 2.5,2.5 0 0 0 0.963,-4.807 c 0.021,-0.074 0.038,-0.15 0.058,-0.225 0.105,0.013 0.21,0.032 0.319,0.032"
     fill="#44d860"
     id="path14"
     style="fill-rule:evenodd;fill:#000080" />
  <path
     d="m 142.94898,39.937621 c -0.16,0 -0.33,-0.02 -0.49,-0.05 a 2.52,2.52 0 0 1 -0.47,-0.14 c -0.15,-0.06 -0.29,-0.14 -0.431,-0.23 -0.13,-0.09 -0.259,-0.2 -0.38,-0.31 -0.109,-0.12 -0.219,-0.24 -0.309,-0.38 -0.09,-0.14 -0.17,-0.28 -0.231,-0.43 a 2.619,2.619 0 0 1 -0.189,-0.96 c 0,-0.16 0.02,-0.33 0.05,-0.49 0.03,-0.16 0.08,-0.31 0.139,-0.47 0.061,-0.15 0.141,-0.29 0.231,-0.43 0.09,-0.13 0.2,-0.26 0.309,-0.38 0.121,-0.11 0.25,-0.22 0.38,-0.31 0.141,-0.09 0.281,-0.17 0.431,-0.23 0.149,-0.06 0.31,-0.11 0.47,-0.14 0.32,-0.07 0.65,-0.07 0.98,0 0.159,0.03 0.32,0.08 0.47,0.14 0.149,0.06 0.29,0.14 0.43,0.23 0.13,0.09 0.259,0.2 0.38,0.31 0.11,0.12 0.22,0.25 0.31,0.38 0.09,0.14 0.17,0.28 0.23,0.43 0.06,0.16 0.11,0.31 0.14,0.47 0.029,0.16 0.05,0.33 0.05,0.49 0,0.66 -0.271,1.31 -0.73,1.77 -0.121,0.11 -0.25,0.22 -0.38,0.31 -0.14,0.09 -0.281,0.17 -0.43,0.23 a 2.565,2.565 0 0 1 -0.96,0.19 m 20,-1.25 c -0.66,0 -1.3,-0.27 -1.771,-0.73 a 3.802,3.802 0 0 1 -0.309,-0.38 c -0.09,-0.14 -0.17,-0.28 -0.231,-0.43 a 2.619,2.619 0 0 1 -0.189,-0.96 c 0,-0.66 0.27,-1.3 0.729,-1.77 0.121,-0.11 0.25,-0.22 0.38,-0.31 0.141,-0.09 0.281,-0.17 0.431,-0.23 0.149,-0.06 0.31,-0.11 0.47,-0.14 0.32,-0.07 0.66,-0.07 0.98,0 0.159,0.03 0.32,0.08 0.47,0.14 0.149,0.06 0.29,0.14 0.43,0.23 0.13,0.09 0.259,0.2 0.38,0.31 0.459,0.47 0.73,1.11 0.73,1.77 0,0.16 -0.021,0.33 -0.05,0.49 -0.03,0.16 -0.08,0.32 -0.14,0.47 -0.07,0.15 -0.14,0.29 -0.23,0.43 -0.09,0.13 -0.2,0.26 -0.31,0.38 -0.121,0.11 -0.25,0.22 -0.38,0.31 -0.14,0.09 -0.281,0.17 -0.43,0.23 a 2.565,2.565 0 0 1 -0.96,0.19"
     fill="#000000"
     id="path15"
     style="fill-rule:evenodd" />
</svg>
