<?xml version="1.0" encoding="UTF-8" standalone="no"?>
<!-- Uploaded to: SVG Repo, www.svgrepo.com, Generator: SVG Repo Mixer Tools -->

<svg
   width="800px"
   height="800px"
   viewBox="0 0 24 24"
   fill="none"
   version="1.1"
   id="svg3"
   sodipodi:docname="logo.svg"
   inkscape:version="1.3.2 (091e20e, 2023-11-25, custom)"
   inkscape:export-filename="logo.png"
   inkscape:export-xdpi="96"
   inkscape:export-ydpi="96"
   xmlns:inkscape="http://www.inkscape.org/namespaces/inkscape"
   xmlns:sodipodi="http://sodipodi.sourceforge.net/DTD/sodipodi-0.dtd"
   xmlns="http://www.w3.org/2000/svg"
   xmlns:svg="http://www.w3.org/2000/svg">
  <defs
     id="defs3" />
  <sodipodi:namedview
     id="namedview3"
     pagecolor="#ffffff"
     bordercolor="#000000"
     borderopacity="0.25"
     inkscape:showpageshadow="2"
     inkscape:pageopacity="0.0"
     inkscape:pagecheckerboard="0"
     inkscape:deskcolor="#d1d1d1"
     inkscape:zoom="0.71241008"
     inkscape:cx="409.87629"
     inkscape:cy="477.95505"
     inkscape:window-width="1920"
     inkscape:window-height="1017"
     inkscape:window-x="-8"
     inkscape:window-y="-8"
     inkscape:window-maximized="1"
     inkscape:current-layer="svg3" />
  <circle
     style="opacity:1;fill:#ffffff;fill-opacity:1;stroke-width:0.161255"
     id="path4"
     cx="12"
     cy="12"
     r="11.833072" />
  <g
     id="g4"
     transform="matrix(0.95030694,0,0,0.95030694,0.59631678,0.59631678)">
    <path
       d="M 19.8978,16 H 7.89778 C 6.96781,16 6.50282,16 6.12132,16.1022 5.08604,16.3796 4.2774,17.1883 4,18.2235"
       stroke="#1c274d"
       stroke-width="1.5"
       id="path1" />
    <path
       d="M 7,16 V 2.5"
       stroke="#1c274d"
       stroke-width="1.5"
       stroke-linecap="round"
       id="path2" />
    <path
       d="M 10,22 C 7.17157,22 5.75736,22 4.87868,21.1213 4,20.2426 4,18.8284 4,16 V 8 C 4,5.17157 4,3.75736 4.87868,2.87868 5.75736,2 7.17157,2 10,2 h 4 c 2.8284,0 4.2426,0 5.1213,0.87868 C 20,3.75736 20,5.17157 20,8 m -6,14 c 2.8284,0 4.2426,0 5.1213,-0.8787 C 20,20.2426 20,18.8284 20,16 v -4"
       stroke="#1c274d"
       stroke-width="1.5"
       stroke-linecap="round"
       id="path3" />
  </g>
</svg>
